# xmcd
#
# Track frame offsets: 
#        150
#        15619
#        35225
#        56754
#        81233
#        99580
#        118796
#        134832
#        152719
#        173598
#        192974
#        214155
#
# Disc length: 3055 seconds
#
# Revision: 0
# Processed by: cddbd v1.5.2PL0 Copyright (c) Steve Scherf et al.
# Submitted via: ExactAudioCopyFreeDBPlugin 1.0
#
DISCID=ac0bed0c
DTITLE=Kenny Chesney - Be as You Are (Songs from an Old Blue Chair)
DYEAR=2005
DGENRE=Blues
TTITLE0=Old Blue Chair
TTITLE1=Be as You Are
TTITLE2=Somewhere in the Sun
TTITLE3=Something Sexy About the Rain
TTITLE4=French Kissing Life
TTITLE5=Soul of a Sailor
TTITLE6=Old Blue Chair [*]
TTITLE7=Island Boy
TTITLE8=Guitars and Tiki Bars
TTITLE9=Boston
TTITLE10=Key Lime Pie
TTITLE11=Sherry's Living in Paradise
EXTD=
EXTT0=
EXTT1=
EXTT2=
EXTT3=
EXTT4=
EXTT5=
EXTT6=
EXTT7=
EXTT8=
EXTT9=
EXTT10=
EXTT11=
PLAYORDER=
